<?xml version="1.0" encoding="iso-8859-1"?>
<!-- Generator: Adobe Illustrator 19.0.0, SVG Export Plug-In . SVG Version: 6.00 Build 0)  -->
<svg version="1.1" id="Layer_1" xmlns="http://www.w3.org/2000/svg" xmlns:xlink="http://www.w3.org/1999/xlink" x="0px" y="0px"
	 viewBox="0 0 504 504" style="enable-background:new 0 0 504 504;" xml:space="preserve">
<g>
	<rect x="451.2" y="372.188" style="fill:#285443;" width="34.4" height="108"/>
	<rect x="3.2" y="312.988" style="fill:#285443;" width="57.6" height="176"/>
	<rect x="91.2" y="412.988" style="fill:#285443;" width="34.4" height="89.6"/>
	<rect x="422.4" y="403.388" style="fill:#285443;" width="34.4" height="89.6"/>
	<rect x="121.6" y="392.988" style="fill:#285443;" width="34.4" height="89.6"/>
</g>
<rect x="162.4" y="404.988" style="fill:#424A4C;" width="34.4" height="89.6"/>
<g>
	<rect x="149.6" y="403.388" style="fill:#285443;" width="34.4" height="89.6"/>
	<rect x="289.6" y="403.388" style="fill:#285443;" width="34.4" height="89.6"/>
	<rect x="314.4" y="425.788" style="fill:#285443;" width="119.2" height="63.2"/>
	<rect x="184" y="433.788" style="fill:#285443;" width="119.2" height="63.2"/>
	<rect x="41.6" y="425.788" style="fill:#285443;" width="119.2" height="63.2"/>
	<rect x="466.4" y="395.388" style="fill:#285443;" width="34.4" height="89.6"/>
</g>
<g>
	<rect x="42.4" y="322.588" style="fill:#EBF0F2;" width="8" height="8"/>
	<rect x="42.4" y="337.788" style="fill:#EBF0F2;" width="8" height="8"/>
	<rect x="42.4" y="352.988" style="fill:#EBF0F2;" width="8" height="8"/>
	<rect x="42.4" y="368.188" style="fill:#EBF0F2;" width="8" height="8"/>
	<rect x="42.4" y="383.388" style="fill:#EBF0F2;" width="8" height="8"/>
	<rect x="42.4" y="398.588" style="fill:#EBF0F2;" width="8" height="8"/>
	<rect x="42.4" y="413.788" style="fill:#EBF0F2;" width="8" height="8"/>
	<rect x="42.4" y="428.988" style="fill:#EBF0F2;" width="8" height="8"/>
	<rect x="28" y="322.588" style="fill:#EBF0F2;" width="8" height="8"/>
	<rect x="28" y="337.788" style="fill:#EBF0F2;" width="8" height="8"/>
	<rect x="28" y="352.988" style="fill:#EBF0F2;" width="8" height="8"/>
	<rect x="28" y="368.188" style="fill:#EBF0F2;" width="8" height="8"/>
	<rect x="28" y="383.388" style="fill:#EBF0F2;" width="8" height="8"/>
	<rect x="28" y="398.588" style="fill:#EBF0F2;" width="8" height="8"/>
	<rect x="28" y="413.788" style="fill:#EBF0F2;" width="8" height="8"/>
	<rect x="28" y="428.988" style="fill:#EBF0F2;" width="8" height="8"/>
	<rect x="13.6" y="322.588" style="fill:#EBF0F2;" width="8" height="8"/>
	<rect x="13.6" y="337.788" style="fill:#EBF0F2;" width="8" height="8"/>
	<rect x="13.6" y="352.988" style="fill:#EBF0F2;" width="8" height="8"/>
	<rect x="13.6" y="368.188" style="fill:#EBF0F2;" width="8" height="8"/>
	<rect x="13.6" y="383.388" style="fill:#EBF0F2;" width="8" height="8"/>
	<rect x="13.6" y="398.588" style="fill:#EBF0F2;" width="8" height="8"/>
	<rect x="13.6" y="413.788" style="fill:#EBF0F2;" width="8" height="8"/>
	<rect x="13.6" y="428.988" style="fill:#EBF0F2;" width="8" height="8"/>
</g>
<path style="fill:#3D514A;" d="M253.6,47.388c0,0.8-0.8,1.6-1.6,1.6l0,0c-0.8,0-1.6-0.8-1.6-1.6v-36.8c0-0.8,0.8-1.6,1.6-1.6l0,0
	c0.8,0,1.6,0.8,1.6,1.6V47.388z"/>
<path style="fill:#5B726B;" d="M260.8,51.388c0,3.2-2.4,5.6-5.6,5.6h-6.4c-3.2,0-5.6-2.4-5.6-5.6l0,0c0-3.2,2.4-5.6,5.6-5.6h6.4
	C258.4,44.988,260.8,48.188,260.8,51.388L260.8,51.388z"/>
<path style="fill:#40514B;" d="M334.4,489.788h-16.8c0-35.2-29.6-63.2-65.6-63.2s-65.6,28-65.6,63.2h-16.8c0-44,36.8-80,82.4-80
	S334.4,445.788,334.4,489.788z"/>
<path style="fill:#2F3A36;" d="M252,418.588c-42.4,0-77.6,31.2-81.6,71.2h16c0-35.2,29.6-63.2,65.6-63.2s65.6,28,65.6,63.2h16
	C329.6,449.788,294.4,418.588,252,418.588z"/>
<path style="fill:#5B726B;" d="M390.4,480.988c-33.6,0-127.2-167.2-127.2-398.4c0-11.2-2.4-31.2-10.4-31.2l0,0l0,0l0,0l0,0
	c-8,0-10.4,20-10.4,31.2c0,231.2-94.4,398.4-127.2,398.4c-8.8,0-8,6.4-8,17.6c0,11.2,34.4-2.4,43.2-2.4
	c28.8,0,84.8-131.2,103.2-290.4c18.4,158.4,74.4,290.4,103.2,290.4c8.8,0,43.2,13.6,43.2,2.4S398.4,480.988,390.4,480.988z"/>
<path style="fill:#658278;" d="M262.4,82.588c0-11.2-2.4-31.2-10.4-31.2l0,0l0,0l0,0l0,0c-8,0-10.4,20-10.4,31.2
	c0,231.2-94.4,398.4-127.2,398.4c-0.8,0-1.6,0-2.4,0c9.6,1.6,31.2-6.4,37.6-6.4c28.8,0,84.8-131.2,103.2-290.4
	c18.4,158.4,74.4,290.4,103.2,290.4c6.4,0,28,8,37.6,6.4c-0.8,0-1.6,0-2.4,0C356.8,480.988,262.4,313.788,262.4,82.588z"/>
<g>
	<path style="fill:#40514B;" d="M319.2,381.788h-29.6c3.2,9.6,6.4,18.4,9.6,27.2H332C327.2,400.988,323.2,391.388,319.2,381.788z"/>
	<path style="fill:#40514B;" d="M214.4,381.788h-29.6c-4,9.6-8,18.4-12.8,27.2h32.8C208,400.988,211.2,391.388,214.4,381.788z"/>
</g>
<line style="fill:none;stroke:#5B726B;stroke-width:0.514;stroke-linecap:round;stroke-miterlimit:10;" x1="252" y1="203.388" x2="252" y2="388.988"/>
<path style="fill:#658278;" d="M331.2,414.588H172.8c-2.4,0-4-1.6-4-4s1.6-4,4-4h158.4c2.4,0,4,1.6,4,4S333.6,414.588,331.2,414.588
	z"/>
<path style="fill:#5B726B;" d="M331.2,410.588H172.8c-1.6,0-2.4,0.8-3.2,1.6c0.8,0.8,1.6,1.6,3.2,1.6h158.4c1.6,0,2.4-0.8,3.2-1.6
	C333.6,411.388,332.8,410.588,331.2,410.588z"/>
<path style="fill:#658278;" d="M338.4,378.588l-1.6-1.6h-168h-2.4l-0.8,1.6c-1.6,2.4-0.8,5.6,0.8,10.4c0.8,1.6,0.8,3.2,1.6,4
	c0,4.8,4,8.8,8.8,8.8H328c4.8,0,8.8-4,8.8-8.8c0-0.8,0.8-2.4,1.6-4C339.2,384.988,340,380.988,338.4,378.588z"/>
<path style="fill:#5B726B;" d="M168.8,387.388h-2.4l0,0.8v0.8c0.8,1.6,0.8,3.2,1.6,4c0,4.8,4,8.8,8.8,8.8H328c4.8,0,8.8-4,8.8-8.8
	c0-0.8,0.8-2.4,1.6-4v-0.8l-0.8-0.8H168.8z"/>
<rect x="183.005" y="385.228" transform="matrix(-0.7078 0.7064 -0.7064 -0.7078 594.3222 532.6249)" style="fill:#2F3A36;" width="8" height="8"/>
<polyline style="fill:#101412;" points="192.8,388.988 187.2,394.588 181.6,388.988 "/>
<path style="fill:#7D918A;" d="M187.2,396.988l-7.2-8l7.2-7.2l7.2,7.2L187.2,396.988z M183.2,388.988l4,4l4-4l-4-4L183.2,388.988z"
	/>
<rect x="204.607" y="385.164" transform="matrix(-0.7069 0.7074 -0.7074 -0.7069 631.34 516.6873)" style="fill:#2F3A36;" width="8" height="8"/>
<polyline style="fill:#101412;" points="214.4,388.988 208.8,394.588 203.2,388.988 "/>
<path style="fill:#7D918A;" d="M208.8,396.988l-7.2-7.2l7.2-7.2l7.2,7.2L208.8,396.988z M204.8,388.988l4,4l4-4l-4-4L204.8,388.988z
	"/>
<rect x="226.204" y="385.164" transform="matrix(-0.7069 0.7074 -0.7074 -0.7069 668.2031 501.4107)" style="fill:#2F3A36;" width="8" height="8"/>
<polyline style="fill:#101412;" points="236,388.988 230.4,394.588 224.8,388.988 "/>
<path style="fill:#7D918A;" d="M230.4,396.988l-7.2-7.2l7.2-7.2l7.2,7.2L230.4,396.988z M226.4,388.988l4,4l4-4l-4-4L226.4,388.988z
	"/>
<rect x="247.772" y="385.088" transform="matrix(-0.7074 0.7069 -0.7069 -0.7074 704.8957 486.3457)" style="fill:#2F3A36;" width="8" height="8"/>
<polyline style="fill:#101412;" points="257.6,388.988 252,394.588 246.4,388.988 "/>
<path style="fill:#7D918A;" d="M252,396.988l-7.2-7.2l7.2-7.2l7.2,7.2L252,396.988z M248,388.988l4,4l4-4l-4-3.2L248,388.988z"/>
<rect x="269.326" y="385.035" transform="matrix(-0.7083 0.7059 -0.7059 -0.7083 741.5455 471.6479)" style="fill:#2F3A36;" width="8" height="8"/>
<polyline style="fill:#101412;" points="279.2,388.988 273.6,394.588 268,388.988 "/>
<path style="fill:#7D918A;" d="M273.6,396.988l-7.2-7.2l7.2-7.2l7.2,7.2L273.6,396.988z M269.6,388.988l4,4l4-4l-4-4L269.6,388.988z
	"/>
<rect x="290.932" y="385.006" transform="matrix(-0.7074 0.7069 -0.7069 -0.7074 778.5267 455.6978)" style="fill:#2F3A36;" width="8" height="8"/>
<polyline style="fill:#101412;" points="300.8,388.988 295.2,394.588 289.6,388.988 "/>
<path style="fill:#7D918A;" d="M295.2,396.988l-7.2-7.2l7.2-7.2l7.2,7.2L295.2,396.988z M291.2,388.988l4,4l4-4l-4-4L291.2,388.988z
	"/>
<rect x="312.48" y="384.964" transform="matrix(-0.7069 0.7074 -0.7074 -0.7069 815.3231 440.0424)" style="fill:#2F3A36;" width="8" height="8"/>
<polyline style="fill:#101412;" points="322.4,388.988 316.8,394.588 311.2,388.988 "/>
<path style="fill:#7D918A;" d="M316.8,396.988l-7.2-7.2l7.2-7.2l7.2,7.2L316.8,396.988z M312.8,388.988l4,4l4-4l-4-4L312.8,388.988z
	"/>
<path style="fill:#5B726B;" d="M338.4,376.988c0,0.8-0.8,1.6-1.6,1.6h-168c-0.8,0-1.6-0.8-1.6-1.6l0,0c0-0.8,0.8-1.6,1.6-1.6h168
	C337.6,374.588,338.4,375.388,338.4,376.988L338.4,376.988z"/>
<path style="fill:#658278;" d="M275.2,203.388h-46.4c-0.8,0-0.8-0.8-0.8-0.8l0.8-0.8h46.4c0.8,0,0.8,0.8,0.8,0.8
	S276,203.388,275.2,203.388z"/>
<path style="fill:#5B726B;" d="M275.2,202.588h-46.4c-0.8,0-0.8,0-0.8,0.8l0.8,0.8h46.4c0.8,0,0.8,0,0.8-0.8
	S276,202.588,275.2,202.588z"/>
<path style="fill:#658278;" d="M277.6,192.988L277.6,192.988H228h-0.8v0.8c-0.8,0.8,0,1.6,0,3.2v0.8c0,1.6,0.8,2.4,2.4,2.4h44.8
	c1.6,0,2.4-0.8,2.4-2.4v-0.8C277.6,194.588,277.6,193.788,277.6,192.988z"/>
<path style="fill:#5B726B;" d="M228,195.388L228,195.388h-0.8C227.2,196.188,227.2,196.188,228,195.388c-0.8,0.8,0,1.6,0,1.6
	c0,1.6,0.8,2.4,2.4,2.4h44.8c1.6,0,2.4-0.8,2.4-2.4v-0.8l0,0l0,0H228V195.388z"/>
<rect x="232.206" y="195.183" transform="matrix(-0.7037 0.7105 -0.7105 -0.7037 537.1831 168.7431)" style="fill:#2F3A36;" width="2.4" height="2.4"/>
<polyline style="fill:#101412;" points="234.4,196.188 232.8,197.788 231.2,196.188 "/>
<path style="fill:#7D918A;" d="M232.8,198.588l-1.6-2.4l2.4-2.4l2.4,2.4L232.8,198.588z M232,196.188l0.8,0.8l0.8-0.8l-0.8-0.8
	L232,196.188z"/>
<rect x="238.587" y="195.159" transform="matrix(-0.7105 0.7037 -0.7037 -0.7105 548.3334 167.1339)" style="fill:#2F3A36;" width="2.4" height="2.4"/>
<polyline style="fill:#101412;" points="240.8,196.188 239.2,197.788 237.6,196.188 "/>
<path style="fill:#7D918A;" d="M239.2,198.588l-1.6-2.4l2.4-2.4l2.4,2.4L239.2,198.588z M238.4,196.188l0.8,0.8l0.8-0.8l-0.8-0.8
	L238.4,196.188z"/>
<rect x="244.95" y="195.068" transform="matrix(-0.7071 0.7071 -0.7071 -0.7071 558.9865 160.9963)" style="fill:#2F3A36;" width="2.4" height="2.4"/>
<polyline style="fill:#101412;" points="247.2,196.188 245.6,197.788 244,196.188 "/>
<path style="fill:#7D918A;" d="M245.6,198.588l-2.4-2.4l2.4-2.4l2.4,2.4L245.6,198.588z M244.8,196.188l0.8,0.8l0.8-0.8l-0.8-0.8
	L244.8,196.188z"/>
<rect x="251.33" y="195.024" transform="matrix(-0.7105 0.7037 -0.7037 -0.7105 570.034 157.9356)" style="fill:#2F3A36;" width="2.4" height="2.4"/>
<polyline style="fill:#101412;" points="253.6,196.188 252,197.788 250.4,196.188 "/>
<path style="fill:#7D918A;" d="M252,198.588l-2.4-2.4l2.4-2.4l2.4,2.4L252,198.588z M251.2,196.188l0.8,0.8l0.8-0.8l-0.8-0.8
	L251.2,196.188z"/>
<rect x="257.132" y="195.513" transform="matrix(-0.7088 0.7054 -0.7054 -0.7088 580.2007 153.9156)" style="fill:#2F3A36;" width="2.4" height="2.4"/>
<polyline style="fill:#101412;" points="260,196.188 258.4,197.788 256.8,196.188 "/>
<path style="fill:#7D918A;" d="M258.4,198.588l-2.4-2.4l2.4-2.4l2.4,2.4L258.4,198.588z M256.8,196.188l0.8,0.8l0.8-0.8l-0.8-0.8
	L256.8,196.188z"/>
<rect x="263.504" y="195.465" transform="matrix(-0.7071 0.7071 -0.7071 -0.7071 590.9422 148.5545)" style="fill:#2F3A36;" width="2.4" height="2.4"/>
<polyline style="fill:#101412;" points="266.4,196.188 264.8,197.788 263.2,196.188 "/>
<path style="fill:#7D918A;" d="M264.8,198.588l-2.4-2.4l2.4-2.4l2.4,2.4L264.8,198.588z M263.2,196.188l0.8,0.8l0.8-0.8l-0.8-0.8
	L263.2,196.188z"/>
<rect x="269.878" y="195.372" transform="matrix(-0.7071 0.7071 -0.7071 -0.7071 601.7563 143.8883)" style="fill:#2F3A36;" width="2.4" height="2.4"/>
<polyline style="fill:#101412;" points="272.8,196.188 271.2,197.788 269.6,196.188 "/>
<path style="fill:#7D918A;" d="M271.2,198.588l-2.4-2.4l2.4-2.4l2.4,2.4L271.2,198.588z M269.6,196.188l0.8,0.8l0.8-0.8l-0.8-0.8
	L269.6,196.188z"/>
<path style="fill:#5B726B;" d="M277.6,192.188C277.6,192.988,276.8,192.988,277.6,192.188l-49.6,0.8c0,0-0.8,0-0.8-0.8l0,0
	c0,0,0-0.8,0.8-0.8L277.6,192.188C276.8,192.188,277.6,192.188,277.6,192.188L277.6,192.188z"/>
<path style="fill:#658278;" d="M268,71.388h-32c-0.8,0-0.8-0.8-0.8-1.6s0-1.6,0.8-1.6h32c0.8,0,0.8,0.8,0.8,1.6
	S268.8,71.388,268,71.388z"/>
<path style="fill:#5B726B;" d="M268,69.788h-32l-0.8,0.8c0,0.8,0,0.8,0.8,0.8h32l0.8-0.8C268.8,69.788,268,69.788,268,69.788z"/>
<path style="fill:#658278;" d="M269.6,52.988v-0.8H236h-0.8v0.8c0,1.6,0,3.2,0,4.8c0,0.8,0,1.6,0,1.6c0,2.4,0.8,4,1.6,4h30.4
	c0.8,0,1.6-1.6,1.6-4c0,0,0-1.6,0-2.4C269.6,56.188,269.6,54.588,269.6,52.988z"/>
<g>
	<path style="fill:#5B726B;" d="M235.2,57.788L235.2,57.788L235.2,57.788c-0.8,0.8-0.8,0.8-0.8,0.8c0,0.8,0,1.6,0,1.6
		c0,2.4,0.8,4,1.6,4h30.4c0.8,0,1.6-1.6,1.6-4c0,0,0-1.6,0-2.4c0,0,0,0,0-0.8v-0.8h-32.8V57.788z"/>
	<path style="fill:#5B726B;" d="M269.6,52.188c0,0.8,0,0.8-0.8,0.8h-34.4l-0.8-0.8l0,0c0-0.8,0-0.8,0.8-0.8h34.4
		C269.6,51.388,269.6,51.388,269.6,52.188L269.6,52.188z"/>
</g>
<path style="fill:#658278;" d="M293.6,309.788h-83.2c-0.8,0-1.6-0.8-1.6-1.6c0-0.8,0.8-1.6,1.6-1.6h84c0.8,0,1.6,0.8,1.6,1.6
	C296,308.988,295.2,309.788,293.6,309.788z"/>
<path style="fill:#5B726B;" d="M293.6,308.188h-83.2c-0.8,0-1.6,0.8-1.6,0.8c0,0.8,0.8,0.8,1.6,0.8h84c0.8,0,1.6-0.8,1.6-0.8
	C295.2,308.188,294.4,308.188,293.6,308.188z"/>
<path style="fill:#658278;" d="M297.6,291.388l-0.8-0.8H208h-1.6l-0.8,0.8c-0.8,1.6,0,3.2,0.8,5.6c0,0.8,0.8,1.6,0.8,2.4
	c0,2.4,2.4,4.8,4.8,4.8h80c2.4,0,4.8-2.4,4.8-4.8c0,0,0.8-1.6,0.8-2.4C297.6,294.588,298.4,292.188,297.6,291.388z"/>
<path style="fill:#5B726B;" d="M208,295.388h-1.6l0,0c0,0,0,0,0,0.8s0.8,1.6,0.8,2.4c0,2.4,2.4,4.8,4.8,4.8h80
	c2.4,0,4.8-2.4,4.8-4.8c0,0,0.8-1.6,0.8-2.4c0,0,0,0,0-0.8l-0.8-0.8H208V295.388z"/>
<rect x="215.885" y="294.537" transform="matrix(-0.7071 0.7071 -0.7071 -0.7071 581.6362 352.1521)" style="fill:#2F3A36;" width="4" height="4"/>
<polyline style="fill:#101412;" points="220.8,296.988 217.6,299.388 215.2,296.988 "/>
<path style="fill:#7D918A;" d="M217.6,300.188l-4-4l4-4l4,4L217.6,300.188z M216,296.988l2.4,2.4l2.4-2.4l-2.4-2.4L216,296.988z"/>
<rect x="227.101" y="294.679" transform="matrix(-0.709 0.7052 -0.7052 -0.709 600.7538 345.463)" style="fill:#2F3A36;" width="4" height="4"/>
<polyline style="fill:#101412;" points="232,296.988 229.6,299.388 226.4,296.988 "/>
<path style="fill:#7D918A;" d="M229.6,300.188l-4-4l4-4l4,4L229.6,300.188z M227.2,296.988l2.4,2.4l2.4-2.4l-2.4-2.4L227.2,296.988z
	"/>
<polygon style="fill:#2F3A36;" points="244,296.988 240.8,299.388 237.6,296.988 240.8,293.788 "/>
<polyline style="fill:#101412;" points="244,296.988 240.8,299.388 237.6,296.988 "/>
<path style="fill:#7D918A;" d="M240.8,300.188l-4-4l4-4l4,4L240.8,300.188z M238.4,296.988l2.4,2.4l2.4-2.4l-2.4-2.4L238.4,296.988z
	"/>
<rect x="249.662" y="294.903" transform="matrix(-0.7099 0.7043 -0.7043 -0.7099 639.4266 330.429)" style="fill:#2F3A36;" width="4" height="4"/>
<polyline style="fill:#101412;" points="255.2,296.988 252,299.388 248.8,296.988 "/>
<path style="fill:#7D918A;" d="M252,300.188l-4-4l4-4l4,4L252,300.188z M249.6,296.988l2.4,2.4l2.4-2.4l-2.4-2.4L249.6,296.988z"/>
<rect x="261.451" y="294.476" transform="matrix(-0.709 0.7052 -0.7052 -0.709 659.3143 320.8928)" style="fill:#2F3A36;" width="4" height="4"/>
<polyline style="fill:#101412;" points="266.4,296.988 263.2,299.388 260,296.988 "/>
<path style="fill:#7D918A;" d="M263.2,300.188l-4-4l4-4l4,4L263.2,300.188z M261.6,296.988l2.4,2.4l2.4-2.4l-2.4-2.4L261.6,296.988z
	"/>
<polygon style="fill:#2F3A36;" points="277.6,296.988 274.4,299.388 272,296.988 274.4,293.788 "/>
<polyline style="fill:#101412;" points="277.6,296.988 274.4,299.388 272,296.988 "/>
<path style="fill:#7D918A;" d="M274.4,300.188l-4-4l4-4l4,4L274.4,300.188z M272.8,296.988l2.4,2.4l2.4-2.4l-2.4-2.4L272.8,296.988z
	"/>
<rect x="283.956" y="294.72" transform="matrix(-0.709 0.7052 -0.7052 -0.709 697.9482 305.4379)" style="fill:#2F3A36;" width="4" height="4"/>
<polyline style="fill:#101412;" points="288.8,296.988 286.4,299.388 283.2,296.988 "/>
<path style="fill:#7D918A;" d="M286.4,300.188l-4-4l4-4l4,4L286.4,300.188z M284,296.988l2.4,2.4l2.4-2.4l-2.4-2.4L284,296.988z"/>
<g>
	<path style="fill:#5B726B;" d="M297.6,289.788c0,0.8-0.8,0.8-0.8,0.8h-89.6c-0.8,0-0.8-0.8-0.8-0.8l0,0c0-0.8,0.8-0.8,0.8-0.8H296
		C296.8,288.988,297.6,289.788,297.6,289.788L297.6,289.788z"/>
	<path style="fill:#5B726B;" d="M239.2,333.788c-0.8,0-0.8,0-0.8-0.8l-11.2-11.2c-0.8-0.8-0.8-1.6,0-2.4l11.2-11.2
		c0.8-0.8,1.6-0.8,2.4,0l11.2,11.2c0.8,0.8,0.8,1.6,0,2.4l-11.2,11.2C240,333.788,240,333.788,239.2,333.788z M230.4,320.988
		l8.8,8.8l8.8-8.8l-8.8-8.8L230.4,320.988z"/>
	<path style="fill:#5B726B;" d="M239.2,355.388c-0.8,0-0.8,0-0.8-0.8l-11.2-11.2c-0.8-0.8-0.8-1.6,0-2.4l11.2-11.2
		c0.8-0.8,1.6-0.8,2.4,0l11.2,11.2c0.8,0.8,0.8,1.6,0,2.4l-11.2,11.2C240,355.388,240,355.388,239.2,355.388z M230.4,342.588
		l8.8,8.8l8.8-8.8l-8.8-8.8L230.4,342.588z"/>
	<path style="fill:#5B726B;" d="M239.2,376.988c-0.8,0-0.8,0-0.8-0.8l-11.2-11.2c-0.8-0.8-0.8-1.6,0-2.4l11.2-11.2
		c0.8-0.8,1.6-0.8,2.4,0l11.2,11.2c0.8,0.8,0.8,1.6,0,2.4l-11.2,11.2C240,376.988,240,376.988,239.2,376.988z M230.4,364.188
		l8.8,8.8l8.8-8.8l-8.8-8.8L230.4,364.188z"/>
	<path style="fill:#5B726B;" d="M264.8,333.788c-0.8,0-0.8,0-0.8-0.8l-11.2-11.2c-0.8-0.8-0.8-1.6,0-2.4l11.2-11.2
		c0.8-0.8,1.6-0.8,2.4,0l11.2,11.2c0.8,0.8,0.8,1.6,0,2.4l-11.2,11.2C265.6,333.788,265.6,333.788,264.8,333.788z M256,320.988
		l8.8,8.8l8.8-8.8l-8.8-8.8L256,320.988z"/>
	<path style="fill:#5B726B;" d="M264.8,355.388c-0.8,0-0.8,0-0.8-0.8l-11.2-11.2c-0.8-0.8-0.8-1.6,0-2.4l11.2-11.2
		c0.8-0.8,1.6-0.8,2.4,0l11.2,11.2c0.8,0.8,0.8,1.6,0,2.4l-11.2,11.2C265.6,355.388,265.6,355.388,264.8,355.388z M256,342.588
		l8.8,8.8l8.8-8.8l-8.8-8.8L256,342.588z"/>
	<path style="fill:#5B726B;" d="M264.8,376.988c-0.8,0-0.8,0-0.8-0.8l-11.2-11.2c-0.8-0.8-0.8-1.6,0-2.4l11.2-11.2
		c0.8-0.8,1.6-0.8,2.4,0l11.2,11.2c0.8,0.8,0.8,1.6,0,2.4l-11.2,11.2C265.6,376.988,265.6,376.988,264.8,376.988z M256,364.188
		l8.8,8.8l8.8-8.8l-8.8-8.8L256,364.188z"/>
	<path style="fill:#5B726B;" d="M258.4,44.188c0,0.8-0.8,1.6-1.6,1.6h-9.6c-0.8,0-1.6-0.8-1.6-1.6l0,0c0-0.8,0.8-1.6,1.6-1.6h9.6
		C257.6,42.588,258.4,43.388,258.4,44.188L258.4,44.188z"/>
</g>
<path style="fill:#3D514A;" d="M257.6,6.588c0,3.2-2.4,5.6-5.6,5.6l0,0c-3.2,0-5.6-2.4-5.6-5.6l0,0c0-3.2,2.4-5.6,5.6-5.6l0,0
	C255.2,1.788,257.6,4.188,257.6,6.588L257.6,6.588z"/>
<path style="fill:#86B51F;" d="M504,494.588c0,4-3.2,8-8,8H8c-4.8,0-8-3.2-8-8v-8c0-4.8,3.2-8,8-8h488c4,0,8,3.2,8,8V494.588z"/>
<g>
</g>
<g>
</g>
<g>
</g>
<g>
</g>
<g>
</g>
<g>
</g>
<g>
</g>
<g>
</g>
<g>
</g>
<g>
</g>
<g>
</g>
<g>
</g>
<g>
</g>
<g>
</g>
<g>
</g>
</svg>
